<?xml version="1.0" standalone="no"?>
<!DOCTYPE svg PUBLIC "-//W3C//DTD SVG 20010904//EN"
 "http://www.w3.org/TR/2001/REC-SVG-20010904/DTD/svg10.dtd">
<svg version="1.0" xmlns="http://www.w3.org/2000/svg"
 width="1024.000000pt" height="1024.000000pt" viewBox="0 0 1024.000000 1024.000000"
 preserveAspectRatio="xMidYMid meet">
<metadata>
Created by potrace 1.14, written by Peter Selinger 2001-2017
</metadata>
<g transform="translate(0.000000,1024.000000) scale(0.100000,-0.100000)"
fill="#000000" stroke="none">
<path d="M2550 9903 c0 -5 -12 -21 -28 -38 -15 -16 -51 -61 -81 -99 -29 -37
-59 -75 -67 -85 -7 -9 -137 -171 -289 -361 -151 -190 -282 -353 -290 -362 -8
-10 -47 -59 -86 -110 -40 -51 -75 -95 -78 -98 -4 -3 -40 -48 -81 -100 -41 -52
-77 -97 -80 -100 -3 -3 -111 -138 -240 -300 -129 -162 -242 -304 -252 -315 -9
-11 -48 -60 -87 -109 l-71 -89 0 -3703 c0 -2037 2 -3704 4 -3704 2 0 32 35 66
78 34 42 69 86 78 97 10 11 69 85 132 165 63 80 123 154 132 165 9 11 184 229
388 485 204 256 379 474 388 485 9 11 51 63 92 115 41 52 77 97 80 100 3 3 91
112 195 243 l190 239 0 3704 c0 2037 -3 3704 -7 3704 -5 0 -8 -3 -8 -7z"/>
<path d="M9377 9887 c-8 -12 -23 -31 -34 -42 -10 -11 -34 -40 -53 -65 -46 -58
-52 -67 -92 -116 -18 -22 -47 -58 -64 -80 -543 -679 -777 -972 -788 -985 -8
-10 -38 -48 -68 -85 -29 -38 -63 -80 -74 -94 -26 -30 -150 -185 -184 -231 -14
-18 -30 -37 -35 -43 -6 -6 -82 -101 -169 -210 l-159 -199 -1 -3700 c-1 -2034
2 -3701 5 -3703 3 -2 37 36 75 84 37 48 71 89 74 92 4 3 30 36 60 74 52 69 68
88 104 129 10 12 39 49 64 82 25 33 49 62 52 65 3 3 21 25 40 50 19 25 40 52
47 60 7 8 56 69 109 135 52 66 103 129 112 140 10 11 87 108 172 215 85 107
157 197 160 200 3 3 84 104 180 225 96 121 177 222 181 225 3 3 29 36 59 74
52 69 68 88 104 129 10 12 39 49 64 82 26 33 54 69 64 79 10 11 18 29 19 40 5
117 2 7389 -2 7392 -4 2 -14 -6 -22 -19z"/>
<path d="M3151 7917 l-1 -1658 44 -62 c24 -34 61 -87 82 -118 43 -62 612 -873
686 -978 65 -91 160 -228 178 -255 8 -13 23 -34 33 -47 10 -13 76 -107 147
-209 71 -102 135 -193 142 -202 30 -39 414 -591 424 -608 6 -11 18 -28 26 -37
8 -10 37 -49 63 -88 27 -38 90 -128 140 -200 50 -71 111 -159 136 -195 44 -63
426 -607 451 -643 7 -10 228 -325 491 -700 262 -375 483 -689 490 -697 7 -8
22 -31 34 -50 12 -20 30 -46 40 -58 10 -12 83 -116 163 -231 80 -116 147 -210
150 -211 3 0 5 747 4 1660 l0 1660 -21 22 c-17 19 -76 102 -223 314 -8 12 -43
61 -77 110 -34 49 -93 133 -130 186 -279 400 -378 541 -448 638 -79 109 -589
839 -600 858 -5 9 -12 19 -16 22 -3 3 -110 156 -239 340 -129 184 -272 389
-318 455 -47 66 -107 152 -134 190 -27 39 -100 142 -162 230 -61 88 -139 198
-171 245 -33 47 -138 198 -235 335 -96 138 -183 261 -192 275 -10 14 -32 45
-49 70 -18 25 -51 72 -74 105 -23 33 -102 145 -176 250 -74 104 -138 197 -144
206 -5 10 -44 65 -85 123 -122 173 -404 574 -417 593 -9 14 -12 -354 -12
-1640z"/>
</g>
</svg>
