<?xml version="1.0" standalone="no"?>
<!DOCTYPE svg PUBLIC "-//W3C//DTD SVG 20010904//EN"
 "http://www.w3.org/TR/2001/REC-SVG-20010904/DTD/svg10.dtd">
<svg version="1.0" xmlns="http://www.w3.org/2000/svg"
 width="512.000000pt" height="512.000000pt" viewBox="0 0 512.000000 512.000000"
 preserveAspectRatio="xMidYMid meet">
<metadata>
Created by potrace 1.14, written by Peter Selinger 2001-2017
</metadata>
<g transform="translate(0.000000,512.000000) scale(0.100000,-0.100000)"
fill="#000000" stroke="none">
<path d="M1165 5023 c-10 -15 -23 -33 -29 -39 -6 -6 -21 -24 -33 -40 -26 -34
-237 -300 -261 -329 -10 -11 -33 -40 -52 -65 -19 -25 -37 -47 -40 -50 -3 -3
-37 -46 -77 -97 -39 -50 -81 -102 -92 -115 -11 -13 -81 -99 -155 -193 l-135
-170 0 -1930 -1 -1930 28 31 c15 18 81 100 147 184 66 83 130 164 142 178 26
33 305 384 342 431 14 19 31 39 36 45 6 6 35 43 65 81 30 39 57 72 60 75 3 3
23 27 45 55 l40 49 0 1919 c0 1055 -3 1923 -6 1929 -3 5 -14 -3 -24 -19z"/>
<path d="M4799 5018 c-13 -18 -28 -38 -34 -44 -13 -15 -31 -37 -75 -94 -36
-46 -54 -69 -80 -100 -8 -9 -26 -32 -40 -50 -30 -39 -271 -342 -306 -384 -13
-16 -34 -43 -46 -59 -13 -17 -45 -58 -73 -92 -27 -34 -63 -79 -80 -100 -16
-21 -54 -68 -82 -104 l-53 -65 0 -106 c-1 -162 -1 -3723 0 -3740 0 -15 4 -11
108 119 64 79 67 84 112 141 19 25 37 47 40 50 3 3 21 25 40 50 19 25 39 50
45 56 5 6 22 26 37 45 14 19 92 117 173 219 81 102 159 200 173 219 15 18 61
75 102 126 l75 93 -1 1921 c0 1056 -3 1923 -6 1926 -3 4 -16 -9 -29 -27z"/>
<path d="M1540 4018 l0 -865 207 -294 c113 -162 220 -314 237 -339 16 -25 32
-47 35 -50 4 -3 20 -25 37 -50 96 -138 157 -226 444 -633 173 -246 320 -455
325 -465 6 -9 13 -19 16 -22 3 -3 57 -79 120 -170 64 -91 169 -241 235 -335
65 -93 126 -180 134 -191 195 -279 250 -355 251 -343 1 8 2 394 3 859 2 815 1
846 -17 870 -11 14 -79 111 -151 215 -138 198 -625 895 -650 930 -8 11 -188
268 -400 570 -212 303 -391 558 -398 567 -6 9 -85 122 -174 250 -89 128 -183
262 -208 297 l-46 64 0 -865z"/>
</g>
</svg>
